<mxfile host="app.diagrams.net" modified="2023-12-23T11:21:21.208Z" agent="Mozilla/5.0 (Windows NT 10.0; Win64; x64) AppleWebKit/537.36 (KHTML, like Gecko) Chrome/120.0.0.0 Safari/537.36" etag="OXWPSTikyRD-BvgMkwSq" version="22.1.11" type="github">
  <diagram name="Page-1" id="c7558073-3199-34d8-9f00-42111426c3f3">
    <mxGraphModel dx="1687" dy="878" grid="1" gridSize="10" guides="1" tooltips="1" connect="1" arrows="1" fold="1" page="1" pageScale="1" pageWidth="826" pageHeight="1169" background="none" math="0" shadow="0">
      <root>
        <mxCell id="0" />
        <mxCell id="1" parent="0" />
        <mxCell id="RbCD6LQsru_kbWGwT14q-98" style="edgeStyle=orthogonalEdgeStyle;rounded=0;orthogonalLoop=1;jettySize=auto;html=1;entryX=0.5;entryY=0;entryDx=0;entryDy=0;" edge="1" parent="1" source="RbCD6LQsru_kbWGwT14q-96" target="RbCD6LQsru_kbWGwT14q-97">
          <mxGeometry relative="1" as="geometry" />
        </mxCell>
        <mxCell id="RbCD6LQsru_kbWGwT14q-96" value="COGT (EU)" style="rounded=1;whiteSpace=wrap;html=1;fillColor=#dae8fc;strokeColor=#6c8ebf;" vertex="1" parent="1">
          <mxGeometry x="353" y="20" width="120" height="60" as="geometry" />
        </mxCell>
        <mxCell id="RbCD6LQsru_kbWGwT14q-100" style="edgeStyle=orthogonalEdgeStyle;rounded=0;orthogonalLoop=1;jettySize=auto;html=1;entryX=0.5;entryY=0;entryDx=0;entryDy=0;" edge="1" parent="1" source="RbCD6LQsru_kbWGwT14q-97" target="RbCD6LQsru_kbWGwT14q-99">
          <mxGeometry relative="1" as="geometry" />
        </mxCell>
        <mxCell id="RbCD6LQsru_kbWGwT14q-97" value="OCORRENCIA" style="rhombus;whiteSpace=wrap;html=1;fillColor=#fff2cc;strokeColor=#d6b656;" vertex="1" parent="1">
          <mxGeometry x="365" y="140" width="97" height="100" as="geometry" />
        </mxCell>
        <mxCell id="RbCD6LQsru_kbWGwT14q-102" value="" style="edgeStyle=orthogonalEdgeStyle;rounded=0;orthogonalLoop=1;jettySize=auto;html=1;" edge="1" parent="1" source="RbCD6LQsru_kbWGwT14q-99" target="RbCD6LQsru_kbWGwT14q-101">
          <mxGeometry relative="1" as="geometry" />
        </mxCell>
        <mxCell id="RbCD6LQsru_kbWGwT14q-104" value="" style="edgeStyle=orthogonalEdgeStyle;rounded=0;orthogonalLoop=1;jettySize=auto;html=1;" edge="1" parent="1" source="RbCD6LQsru_kbWGwT14q-99" target="RbCD6LQsru_kbWGwT14q-103">
          <mxGeometry relative="1" as="geometry" />
        </mxCell>
        <mxCell id="RbCD6LQsru_kbWGwT14q-99" value="DESLIGAMENTO&lt;br&gt;(GERAL, FALHA EQUIPAMENTO)" style="rounded=1;whiteSpace=wrap;html=1;fillColor=#d5e8d4;strokeColor=#82b366;" vertex="1" parent="1">
          <mxGeometry x="353" y="330" width="120" height="60" as="geometry" />
        </mxCell>
        <mxCell id="RbCD6LQsru_kbWGwT14q-106" style="edgeStyle=orthogonalEdgeStyle;rounded=0;orthogonalLoop=1;jettySize=auto;html=1;entryX=1;entryY=0.5;entryDx=0;entryDy=0;" edge="1" parent="1" source="RbCD6LQsru_kbWGwT14q-101" target="RbCD6LQsru_kbWGwT14q-105">
          <mxGeometry relative="1" as="geometry">
            <mxPoint x="613" y="490" as="targetPoint" />
            <Array as="points">
              <mxPoint x="614" y="480" />
            </Array>
          </mxGeometry>
        </mxCell>
        <mxCell id="RbCD6LQsru_kbWGwT14q-124" style="edgeStyle=orthogonalEdgeStyle;rounded=0;orthogonalLoop=1;jettySize=auto;html=1;" edge="1" parent="1" source="RbCD6LQsru_kbWGwT14q-101" target="RbCD6LQsru_kbWGwT14q-123">
          <mxGeometry relative="1" as="geometry" />
        </mxCell>
        <mxCell id="RbCD6LQsru_kbWGwT14q-101" value="SIM" style="rhombus;whiteSpace=wrap;html=1;fillColor=#d5e8d4;strokeColor=#82b366;rounded=1;" vertex="1" parent="1">
          <mxGeometry x="573" y="320" width="80" height="80" as="geometry" />
        </mxCell>
        <mxCell id="RbCD6LQsru_kbWGwT14q-110" style="edgeStyle=orthogonalEdgeStyle;rounded=0;orthogonalLoop=1;jettySize=auto;html=1;entryX=0.5;entryY=0;entryDx=0;entryDy=0;" edge="1" parent="1" source="RbCD6LQsru_kbWGwT14q-103" target="RbCD6LQsru_kbWGwT14q-109">
          <mxGeometry relative="1" as="geometry" />
        </mxCell>
        <mxCell id="RbCD6LQsru_kbWGwT14q-103" value="NÃO" style="rhombus;whiteSpace=wrap;html=1;fillColor=#d5e8d4;strokeColor=#82b366;rounded=1;" vertex="1" parent="1">
          <mxGeometry x="173" y="320" width="80" height="80" as="geometry" />
        </mxCell>
        <mxCell id="RbCD6LQsru_kbWGwT14q-121" style="edgeStyle=orthogonalEdgeStyle;rounded=0;orthogonalLoop=1;jettySize=auto;html=1;entryX=1;entryY=0.5;entryDx=0;entryDy=0;" edge="1" parent="1" source="RbCD6LQsru_kbWGwT14q-105" target="RbCD6LQsru_kbWGwT14q-116">
          <mxGeometry relative="1" as="geometry">
            <Array as="points">
              <mxPoint x="414" y="650" />
            </Array>
          </mxGeometry>
        </mxCell>
        <mxCell id="RbCD6LQsru_kbWGwT14q-105" value="GERAR&lt;br&gt;SOLICITAÇÃO&lt;br&gt;SERVIÇO (SS)" style="rounded=1;whiteSpace=wrap;html=1;fillColor=#e1d5e7;strokeColor=#9673a6;" vertex="1" parent="1">
          <mxGeometry x="354" y="450" width="120" height="60" as="geometry" />
        </mxCell>
        <mxCell id="RbCD6LQsru_kbWGwT14q-111" style="edgeStyle=orthogonalEdgeStyle;rounded=0;orthogonalLoop=1;jettySize=auto;html=1;entryX=0;entryY=0.5;entryDx=0;entryDy=0;" edge="1" parent="1" source="RbCD6LQsru_kbWGwT14q-109" target="RbCD6LQsru_kbWGwT14q-105">
          <mxGeometry relative="1" as="geometry" />
        </mxCell>
        <mxCell id="RbCD6LQsru_kbWGwT14q-109" value="SERVIÇO NA&amp;nbsp;&lt;br&gt;USINA.&lt;br&gt;( Manutenção ? )" style="whiteSpace=wrap;html=1;fillColor=#fff2cc;strokeColor=#d6b656;" vertex="1" parent="1">
          <mxGeometry x="153" y="450" width="120" height="60" as="geometry" />
        </mxCell>
        <mxCell id="RbCD6LQsru_kbWGwT14q-113" style="edgeStyle=orthogonalEdgeStyle;rounded=0;orthogonalLoop=1;jettySize=auto;html=1;entryX=0;entryY=0.5;entryDx=0;entryDy=0;" edge="1" parent="1" source="RbCD6LQsru_kbWGwT14q-112" target="RbCD6LQsru_kbWGwT14q-97">
          <mxGeometry relative="1" as="geometry">
            <mxPoint x="360" y="190" as="targetPoint" />
          </mxGeometry>
        </mxCell>
        <mxCell id="RbCD6LQsru_kbWGwT14q-112" value="TÉCNICO DE CAMPO" style="rounded=1;whiteSpace=wrap;html=1;fillColor=#f8cecc;strokeColor=#b85450;" vertex="1" parent="1">
          <mxGeometry x="80" y="160" width="130" height="60" as="geometry" />
        </mxCell>
        <mxCell id="RbCD6LQsru_kbWGwT14q-114" value="GERAR&lt;br&gt;ORDEM DE SERVIÇO&lt;br&gt;(OS)" style="whiteSpace=wrap;html=1;fillColor=#e1d5e7;strokeColor=#9673a6;" vertex="1" parent="1">
          <mxGeometry x="153" y="770" width="120" height="60" as="geometry" />
        </mxCell>
        <mxCell id="RbCD6LQsru_kbWGwT14q-119" style="edgeStyle=orthogonalEdgeStyle;rounded=0;orthogonalLoop=1;jettySize=auto;html=1;entryX=0.5;entryY=0;entryDx=0;entryDy=0;" edge="1" parent="1" source="RbCD6LQsru_kbWGwT14q-116" target="RbCD6LQsru_kbWGwT14q-114">
          <mxGeometry relative="1" as="geometry" />
        </mxCell>
        <mxCell id="RbCD6LQsru_kbWGwT14q-116" value="PCM (GABRIEL)" style="whiteSpace=wrap;html=1;fillColor=#dae8fc;strokeColor=#6c8ebf;" vertex="1" parent="1">
          <mxGeometry x="153" y="620" width="120" height="60" as="geometry" />
        </mxCell>
        <mxCell id="RbCD6LQsru_kbWGwT14q-123" value="REGISTRAR OCORRENCIA" style="rounded=1;whiteSpace=wrap;html=1;fillColor=#fff2cc;strokeColor=#d6b656;" vertex="1" parent="1">
          <mxGeometry x="680" y="525" width="120" height="60" as="geometry" />
        </mxCell>
      </root>
    </mxGraphModel>
  </diagram>
</mxfile>
